<mxfile host="app.diagrams.net" modified="2023-07-27T20:01:33.702Z" agent="Mozilla/5.0 (Windows NT 10.0; Win64; x64) AppleWebKit/537.36 (KHTML, like Gecko) Chrome/114.0.0.0 Safari/537.36" etag="6DP-zPhu6E6KBi7fSRye" version="21.6.5" type="device">
  <diagram name="Страница 1" id="PHqzsdxtlZJ084rkAneV">
    <mxGraphModel dx="941" dy="538" grid="1" gridSize="10" guides="1" tooltips="1" connect="1" arrows="1" fold="1" page="1" pageScale="1" pageWidth="827" pageHeight="1169" math="0" shadow="0">
      <root>
        <mxCell id="0" />
        <mxCell id="1" parent="0" />
        <mxCell id="kv_ZCbd4DYtu1S0T6_-p-9" value="Sync" style="edgeStyle=orthogonalEdgeStyle;rounded=0;orthogonalLoop=1;jettySize=auto;html=1;entryX=0.5;entryY=1;entryDx=0;entryDy=0;" parent="1" source="kv_ZCbd4DYtu1S0T6_-p-1" target="kv_ZCbd4DYtu1S0T6_-p-5" edge="1">
          <mxGeometry relative="1" as="geometry" />
        </mxCell>
        <mxCell id="kv_ZCbd4DYtu1S0T6_-p-10" value="Publish:&lt;br&gt;- task created (id, status, assigned_to)&lt;br&gt;- task reassigned (id assigned_to)&lt;br&gt;- task status changed (id status)" style="edgeStyle=orthogonalEdgeStyle;rounded=0;orthogonalLoop=1;jettySize=auto;html=1;dashed=1;align=left;" parent="1" source="kv_ZCbd4DYtu1S0T6_-p-1" target="kv_ZCbd4DYtu1S0T6_-p-2" edge="1">
          <mxGeometry x="-0.7241" y="-40" relative="1" as="geometry">
            <mxPoint as="offset" />
          </mxGeometry>
        </mxCell>
        <mxCell id="kv_ZCbd4DYtu1S0T6_-p-1" value="Task Tracker" style="rounded=0;whiteSpace=wrap;html=1;" parent="1" vertex="1">
          <mxGeometry x="250" y="400" width="120" height="60" as="geometry" />
        </mxCell>
        <mxCell id="kv_ZCbd4DYtu1S0T6_-p-2" value="Message&lt;br&gt;Log" style="shape=cylinder3;whiteSpace=wrap;html=1;boundedLbl=1;backgroundOutline=1;size=15;" parent="1" vertex="1">
          <mxGeometry x="550" y="270" width="60" height="80" as="geometry" />
        </mxCell>
        <mxCell id="kv_ZCbd4DYtu1S0T6_-p-8" value="Sync" style="edgeStyle=orthogonalEdgeStyle;rounded=0;orthogonalLoop=1;jettySize=auto;html=1;entryX=1;entryY=0.5;entryDx=0;entryDy=0;" parent="1" source="kv_ZCbd4DYtu1S0T6_-p-3" target="kv_ZCbd4DYtu1S0T6_-p-5" edge="1">
          <mxGeometry relative="1" as="geometry" />
        </mxCell>
        <mxCell id="kv_ZCbd4DYtu1S0T6_-p-11" value="Publish:&lt;br&gt;- task prices changed &lt;br&gt;(task_id price assigne_fee)&lt;br&gt;- employee day balance &lt;br&gt;(id balance_delta balance_current)" style="edgeStyle=orthogonalEdgeStyle;rounded=0;orthogonalLoop=1;jettySize=auto;html=1;entryX=0;entryY=0;entryDx=0;entryDy=27.5;entryPerimeter=0;exitX=1;exitY=0.25;exitDx=0;exitDy=0;align=left;dashed=1;" parent="1" source="kv_ZCbd4DYtu1S0T6_-p-3" target="kv_ZCbd4DYtu1S0T6_-p-2" edge="1">
          <mxGeometry x="-0.8904" y="45" relative="1" as="geometry">
            <Array as="points">
              <mxPoint x="550" y="295" />
            </Array>
            <mxPoint as="offset" />
          </mxGeometry>
        </mxCell>
        <mxCell id="kv_ZCbd4DYtu1S0T6_-p-12" value="Listen:&lt;br&gt;- task created&lt;br&gt;- task reassigned&lt;br&gt;&lt;div style=&quot;&quot;&gt;- task status changed&lt;/div&gt;" style="edgeStyle=orthogonalEdgeStyle;rounded=0;orthogonalLoop=1;jettySize=auto;html=1;exitX=1;exitY=0.75;exitDx=0;exitDy=0;align=left;dashed=1;" parent="1" source="kv_ZCbd4DYtu1S0T6_-p-3" edge="1">
          <mxGeometry x="-0.5568" y="-35" relative="1" as="geometry">
            <mxPoint x="550" y="325" as="targetPoint" />
            <mxPoint as="offset" />
          </mxGeometry>
        </mxCell>
        <mxCell id="kv_ZCbd4DYtu1S0T6_-p-3" value="Accounting" style="rounded=0;whiteSpace=wrap;html=1;" parent="1" vertex="1">
          <mxGeometry x="250" y="280" width="120" height="60" as="geometry" />
        </mxCell>
        <mxCell id="kv_ZCbd4DYtu1S0T6_-p-6" value="Sync" style="edgeStyle=orthogonalEdgeStyle;rounded=0;orthogonalLoop=1;jettySize=auto;html=1;entryX=0.5;entryY=0;entryDx=0;entryDy=0;" parent="1" source="kv_ZCbd4DYtu1S0T6_-p-4" target="kv_ZCbd4DYtu1S0T6_-p-5" edge="1">
          <mxGeometry relative="1" as="geometry" />
        </mxCell>
        <mxCell id="04hONqTUIBJ7pV-og5w1-3" style="edgeStyle=orthogonalEdgeStyle;rounded=0;orthogonalLoop=1;jettySize=auto;html=1;entryX=0.5;entryY=0;entryDx=0;entryDy=0;entryPerimeter=0;dashed=1;" edge="1" parent="1" source="kv_ZCbd4DYtu1S0T6_-p-4" target="kv_ZCbd4DYtu1S0T6_-p-2">
          <mxGeometry relative="1" as="geometry" />
        </mxCell>
        <mxCell id="04hONqTUIBJ7pV-og5w1-4" value="Listen:&lt;br style=&quot;border-color: var(--border-color);&quot;&gt;- employee day balance&lt;br&gt;- task prices changed" style="edgeLabel;html=1;align=center;verticalAlign=middle;resizable=0;points=[];" vertex="1" connectable="0" parent="04hONqTUIBJ7pV-og5w1-3">
          <mxGeometry x="-0.4924" y="1" relative="1" as="geometry">
            <mxPoint y="-29" as="offset" />
          </mxGeometry>
        </mxCell>
        <mxCell id="kv_ZCbd4DYtu1S0T6_-p-4" value="Analytics" style="rounded=0;whiteSpace=wrap;html=1;" parent="1" vertex="1">
          <mxGeometry x="250" y="160" width="120" height="60" as="geometry" />
        </mxCell>
        <mxCell id="kv_ZCbd4DYtu1S0T6_-p-5" value="Auth" style="rounded=0;whiteSpace=wrap;html=1;" parent="1" vertex="1">
          <mxGeometry x="50" y="280" width="120" height="60" as="geometry" />
        </mxCell>
        <mxCell id="04hONqTUIBJ7pV-og5w1-2" value="Listen:&lt;br&gt;- employee day balance" style="edgeStyle=orthogonalEdgeStyle;rounded=0;orthogonalLoop=1;jettySize=auto;html=1;entryX=0.5;entryY=0;entryDx=0;entryDy=0;entryPerimeter=0;dashed=1;" edge="1" parent="1" source="04hONqTUIBJ7pV-og5w1-1" target="kv_ZCbd4DYtu1S0T6_-p-2">
          <mxGeometry x="-0.6585" y="30" relative="1" as="geometry">
            <mxPoint as="offset" />
          </mxGeometry>
        </mxCell>
        <mxCell id="04hONqTUIBJ7pV-og5w1-1" value="Email" style="rounded=0;whiteSpace=wrap;html=1;" vertex="1" parent="1">
          <mxGeometry x="250" y="40" width="120" height="60" as="geometry" />
        </mxCell>
      </root>
    </mxGraphModel>
  </diagram>
</mxfile>
